<svg width="30" height="25" viewBox="0 0 30 25" fill="none" xmlns="http://www.w3.org/2000/svg">
<path d="M26.7322 0.546903C22.9011 2.13367 6.47358 8.93814 1.93467 10.7927C-1.10933 11.9806 0.672669 13.0944 0.672669 13.0944C0.672669 13.0944 3.27109 13.9852 5.49866 14.6534C7.72592 15.3216 8.91382 14.5793 8.91382 14.5793L19.3822 7.52605C23.0944 5.00174 22.2036 7.08047 21.3124 7.97163C19.3822 9.90215 16.1897 12.9458 13.5169 15.396C12.329 16.4354 12.9228 17.3263 13.4428 17.7718C15.373 19.4053 20.6445 22.7463 20.9413 22.969C22.5097 24.0793 25.5948 25.6776 26.064 22.3008L27.9201 10.6445C28.5142 6.70963 29.108 3.07153 29.1821 2.03216C29.4051 -0.492465 26.7322 0.546903 26.7322 0.546903Z" fill="#1B92D1"/>
</svg>
