<svg width="29" height="25" viewBox="0 0 29 25" fill="none" xmlns="http://www.w3.org/2000/svg">
<path fill-rule="evenodd" clip-rule="evenodd" d="M28.8 3.17418C27.7418 3.65609 26.6024 3.98198 25.4073 4.12759C26.6278 3.37873 27.5643 2.1913 28.0055 0.776782C26.8627 1.47017 25.6 1.97461 24.251 2.24503C23.1759 1.068 21.6393 0.333008 19.9387 0.333008C16.6779 0.333008 14.0323 3.0459 14.0323 6.39151C14.0323 6.86648 14.083 7.3276 14.1845 7.77137C9.27374 7.51828 4.92086 5.10874 2.00486 1.43896C1.49604 2.33691 1.20527 3.37873 1.20527 4.48816C1.20527 6.58913 2.24829 8.44395 3.83392 9.53084C2.86699 9.50138 1.95414 9.22575 1.15626 8.77505V8.84958C1.15626 11.7861 3.19324 14.2355 5.89794 14.7902C5.40264 14.9324 4.8803 15.0034 4.34105 15.0034C3.9607 15.0034 3.5888 14.967 3.22874 14.896C3.98098 17.302 6.16164 19.0546 8.74801 19.1014C6.72625 20.7274 4.17707 21.6964 1.40982 21.6964C0.933117 21.6964 0.461489 21.6686 0 21.6132C2.61511 23.3293 5.72213 24.333 9.05737 24.333C19.9269 24.333 25.8688 15.1022 25.8688 7.0953C25.8688 6.83181 25.8637 6.56833 25.8536 6.31004C27.0081 5.45543 28.0106 4.38935 28.8 3.17418Z" fill="#00AAEC"/>
</svg>
